
<svg width="88px" height="91px" viewBox="0 0 88 91" version="1.1" xmlns="http://www.w3.org/2000/svg" xmlns:xlink="http://www.w3.org/1999/xlink">
    <!-- Generator: Sketch 47.1 (45422) - http://www.bohemiancoding.com/sketch -->
    <desc>Created with Sketch.</desc>
    <defs></defs>
    <g id="Page-1" stroke="none" stroke-width="1" fill="none" fill-rule="evenodd">
        <g id="confetti">
            <g id="confettiQuantum" transform="translate(0.000000, 43.000000)">
                <polygon id="Triangle" fill="#FF8C72" transform="translate(3.028485, 2.580000) rotate(89.000000) translate(-3.028485, -2.580000) " points="3.02848478 -0.404814278 5.55677795 5.56481488 0.500191602 5.56481488"></polygon>
                <circle id="Oval" fill="#3E9AA2" cx="9.35" cy="9.35" r="1.65"></circle>
            </g>
            <g id="confettiQuantum" transform="translate(30.500000, 7.500000) rotate(73.000000) translate(-30.500000, -7.500000) translate(25.000000, 2.000000)">
                <polygon id="Triangle" fill="#FF8C72" transform="translate(3.028485, 2.580000) rotate(89.000000) translate(-3.028485, -2.580000) " points="3.02848478 -0.404814278 5.55677795 5.56481488 0.500191602 5.56481488"></polygon>
                <circle id="Oval" fill="#3E9AA2" cx="9.35" cy="9.35" r="1.65"></circle>
            </g>
            <g id="confettiQuantum" transform="translate(77.500000, 18.500000) rotate(144.000000) translate(-77.500000, -18.500000) translate(72.000000, 13.000000)">
                <polygon id="Triangle" fill="#FF8C72" transform="translate(3.028485, 2.580000) rotate(89.000000) translate(-3.028485, -2.580000) " points="3.02848478 -0.404814278 5.55677795 5.56481488 0.500191602 5.56481488"></polygon>
                <circle id="Oval" fill="#3E9AA2" cx="9.35" cy="9.35" r="1.65"></circle>
            </g>
            <g id="confettiQuantum" transform="translate(83.500000, 65.500000) rotate(215.000000) translate(-83.500000, -65.500000) translate(78.000000, 60.000000)">
                <polygon id="Triangle" fill="#FF8C72" transform="translate(3.028485, 2.580000) rotate(89.000000) translate(-3.028485, -2.580000) " points="3.02848478 -0.404814278 5.55677795 5.56481488 0.500191602 5.56481488"></polygon>
                <circle id="Oval" fill="#3E9AA2" cx="9.35" cy="9.35" r="1.65"></circle>
            </g>
            <g id="confettiQuantum" transform="translate(39.500000, 85.500000) rotate(278.000000) translate(-39.500000, -85.500000) translate(34.000000, 80.000000)">
                <polygon id="Triangle" fill="#FF8C72" transform="translate(3.028485, 2.580000) rotate(89.000000) translate(-3.028485, -2.580000) " points="3.02848478 -0.404814278 5.55677795 5.56481488 0.500191602 5.56481488"></polygon>
                <circle id="Oval" fill="#3E9AA2" cx="9.35" cy="9.35" r="1.65"></circle>
            </g>
        </g>
    </g>
</svg>
