<?xml version="1.0" encoding="UTF-8"?>
<svg width="321px" height="22px" viewBox="0 0 321 22" version="1.1" xmlns="http://www.w3.org/2000/svg" xmlns:xlink="http://www.w3.org/1999/xlink">
    <!-- Generator: Sketch 48.1 (47250) - http://www.bohemiancoding.com/sketch -->
    <title>Group 2</title>
    <desc>Created with Sketch.</desc>
    <defs>
        <polygon id="path-1" points="0 0.00370037778 0 21.1175628 19.8764813 21.1175628 19.8764813 0.00370037778"></polygon>
    </defs>
    <g id="Today" stroke="none" stroke-width="1" fill="none" fill-rule="evenodd" transform="translate(-28.000000, -1893.000000)">
        <g id="Tab-Bar-/-5-Tab" transform="translate(0.000000, 1884.000000)">
            <g id="Group-2" transform="translate(14.000000, 0.000000)">
                <g id="Tab-5" transform="translate(300.000000, 0.000000)">
                    <rect id="Frame" x="0" y="0" width="48" height="49"></rect>
                    <g id="Search-Icon" transform="translate(13.000000, 9.000000)" fill="#8E8E93" fill-rule="nonzero">
                        <path d="M9.09333333,0.29216 C4.08144,0.29216 0,4.3736 0,9.38549333 C0,14.3973867 4.08144,18.4788267 9.09333333,18.4788267 C11.283008,18.4788267 13.2962133,17.6939253 14.86848,16.3979787 L20.2036267,21.7422187 C20.547384,22.085976 21.106536,22.085976 21.4502933,21.7422187 C21.7940507,21.3984613 21.7940507,20.8393093 21.4502933,20.495552 L16.1060533,15.1604053 C17.402,13.5883147 18.1869013,11.574992 18.1869013,9.38525867 C18.1869013,4.37336533 14.1054613,0.291925333 9.093568,0.291925333 L9.09333333,0.29216 Z M9.09333333,2.05216 C13.15424,2.05216 16.4266667,5.32458667 16.4266667,9.38549333 C16.4266667,13.4464 13.15424,16.7188267 9.09333333,16.7188267 C5.03242667,16.7188267 1.76,13.4464 1.76,9.38549333 C1.76,5.32458667 5.03242667,2.05216 9.09333333,2.05216 Z" id="Shape"></path>
                    </g>
                </g>
                <g id="Tab-4" transform="translate(226.000000, 0.000000)">
                    <rect id="Frame" x="0" y="0" width="48" height="49"></rect>
                    <g id="Updates-Icon" transform="translate(15.000000, 9.000000)" fill="#8E8E93">
                        <path d="M2.93333333,3.66664124 L15.0666667,3.66664124 C16.6867019,3.66664124 18,4.97993931 18,6.59997458 L18,19.0666412 C18,20.6866765 16.6867019,21.9999746 15.0666667,21.9999746 L2.93333333,21.9999746 C1.31329807,21.9999746 -2.4569211e-16,20.6866765 -4.4408921e-16,19.0666412 L0,6.59997458 C-1.983971e-16,4.97993931 1.31329807,3.66664124 2.93333333,3.66664124 Z M14.0708267,14.2670733 C14.4877636,13.8946696 14.4902267,13.2988362 14.1645751,12.9214751 C13.8389236,12.544114 13.2023962,12.4994344 12.8273962,12.8271332 L9.9439225,15.2845479 L9.9439225,0.953307911 C9.9439225,0.427004356 9.51956461,-2.54222224e-05 8.99655408,-2.54222224e-05 C8.47354356,-2.54222224e-05 8.04918566,0.427004356 8.04918566,0.953307911 L8.04918566,15.2845479 L5.16571198,12.8271332 C4.79071198,12.4994408 4.16282777,12.552802 3.82853303,12.9214751 C3.47819619,13.3075116 3.54728461,13.9393491 3.92228461,14.2670733 L8.37491619,18.1048511 C8.78938987,18.4176652 9.25568461,18.4002859 9.61833724,18.1048511 L14.0708267,14.2670733 Z" id="Combined-Shape"></path>
                    </g>
                </g>
                <g id="Tab-3" transform="translate(150.000000, 0.000000)">
                    <rect id="Frame" x="0" y="0" width="48" height="49"></rect>
                    <g id="Apps-Icon" transform="translate(13.000000, 9.000000)" fill="#8E8E93">
                        <g id="Group" transform="translate(0.000000, 15.529412)">
                            <path d="M19.9774729,0.0851393189 L21.0380894,0.522260729 C21.6938019,0.793099644 22.0013484,1.53192301 21.7241052,2.17311839 C21.5867731,2.49119665 21.3211354,2.73999054 20.9903778,2.86218298 L11.6137543,6.30939548 C11.0128458,6.52984576 10.3493963,6.52417704 9.75300102,6.29238932 L0.900560655,2.85399482 C0.239045447,2.59701278 -0.0846198892,1.864488 0.17843879,1.21825375 C0.302875862,0.912772652 0.544657736,0.667128055 0.851559529,0.532968314 L1.87993843,0.0851393189 M1.87993843,0.0851393189 L9.75300102,3.14309962 C10.3493963,3.37488734 11.0128458,3.38055606 11.6137543,3.15947592 L19.9774729,0.0851393189" id="Fill-1"></path>
                            <ellipse id="Oval-2" cx="1.5" cy="1.51122291" rx="1.5" ry="1.46865325"></ellipse>
                            <ellipse id="Oval-2" cx="20.5" cy="1.46865325" rx="1.5" ry="1.46865325"></ellipse>
                        </g>
                        <g id="Group" transform="translate(0.000000, 9.705882)">
                            <path d="M19.9774729,0.0851393189 L21.0380894,0.522260729 C21.6938019,0.793099644 22.0013484,1.53192301 21.7241052,2.17311839 C21.5867731,2.49119665 21.3211354,2.73999054 20.9903778,2.86218298 L11.6137543,6.30939548 C11.0128458,6.52984576 10.3493963,6.52417704 9.75300102,6.29238932 L0.900560655,2.85399482 C0.239045447,2.59701278 -0.0846198892,1.864488 0.17843879,1.21825375 C0.302875862,0.912772652 0.544657736,0.667128055 0.851559529,0.532968314 L1.87993843,0.0851393189 M1.87993843,0.0851393189 L9.75300102,3.14309962 C10.3493963,3.37488734 11.0128458,3.38055606 11.6137543,3.15947592 L19.9774729,0.0851393189" id="Fill-1"></path>
                            <ellipse id="Oval-2" cx="1.5" cy="1.51122291" rx="1.5" ry="1.46865325"></ellipse>
                            <ellipse id="Oval-2" cx="20.5" cy="1.46865325" rx="1.5" ry="1.46865325"></ellipse>
                        </g>
                        <path d="M11.6471159,0.312576401 L21.0798876,4.29598521 C21.7263361,4.56897692 22.0290826,5.31433045 21.7560909,5.96077891 C21.6205577,6.28172343 21.3591854,6.53293715 21.0331229,6.65564765 L11.5509763,10.2241628 C10.9588675,10.4469973 10.3049299,10.4409525 9.7170415,10.2072103 L0.764478908,6.64770545 C0.112403101,6.38844259 -0.20603471,5.64965663 0.0532281505,4.99758082 C0.175669449,4.68962692 0.413585182,4.44169852 0.716233001,4.30667344 L9.62315975,0.33288473 C10.2658906,0.0461330271 10.9987605,0.0387794267 11.6471159,0.312576401 Z" id="Rec"></path>
                    </g>
                </g>
                <g id="Tab-2" transform="translate(75.000000, 0.000000)">
                    <rect id="Frame" x="0" y="0" width="48" height="49"></rect>
                    <g id="Rocket-Icon" transform="translate(13.000000, 9.000000)">
                        <path d="M4.88025187,18.3752196 L3.66436459,18.4740419 L3.66429995,18.4740108 C3.50677112,18.4767178 3.30231331,18.3097841 3.26663177,18.1723788 L3.16905698,17.0014468 C3.09711213,16.1523717 3.36983028,15.4765468 3.94031477,15.0526316 L3.20842303,15.3955847 C2.17601773,15.8907229 1.66438839,16.8664685 1.77346919,18.1541763 L1.8980637,19.6492367 C1.94363523,19.824696 2.20468578,20.0378049 2.40584693,20.03432 L2.40591157,20.0343822 L3.95834946,19.9082407 C5.2811844,19.8177884 6.21191023,19.1558409 6.55049702,18.0942793 L6.82602703,17.1747591 C6.50915944,17.8770321 5.82148178,18.3109042 4.88025187,18.3752196" id="Fill-1" fill="#8E8E93"></path>
                        <g id="Rocket-Body" transform="translate(0.000000, 0.017658)">
                            <mask id="mask-2" fill="white">
                                <use xlink:href="#path-1"></use>
                            </mask>
                            <g id="Clip-4"></g>
                            <path d="M11.2882374,7.44421242 C11.2882374,6.33965751 12.1836825,5.44421242 13.2882374,5.44421242 C14.3927923,5.44421242 15.2882374,6.33965751 15.2882374,7.44421242 C15.2882374,8.54876733 14.3927923,9.44421242 13.2882374,9.44421242 C12.1836825,9.44421242 11.2882374,8.54876733 11.2882374,7.44421242 M19.7137851,0.198327865 C19.7034273,0.136427142 19.6925595,0.0744196578 19.6811593,0.0123054109 L19.6823348,0.00370037778 C19.616795,0.00370037778 19.551477,0.0041914839 19.4863586,0.00513099124 C10.9835728,0.12940219 6.13007864,8.30636164 6.13007864,8.30636164 C6.13007864,8.30636164 1.28370406,5.97350085 0.0014971021,14.0316553 C-0.0128307195,14.1217199 0.077926937,14.2021759 0.167708705,14.1733501 C0.167708705,14.1733501 2.75605408,13.1928888 3.66602601,13.0507243 C3.97005972,13.0032151 4.68614029,12.8355557 4.89806341,13.0507243 C5.10998653,13.2658928 4.81023342,13.9525873 4.89806341,14.2368096 C5.01097818,14.6022352 6.07500746,15.4000478 6.26747934,15.5420629 L6.26679178,15.5428529 C6.26679178,15.5428529 7.26162168,16.4566946 7.69436181,16.5045241 C8.00036948,16.538325 8.6506441,16.1346998 8.90759118,16.2981741 C9.16456044,16.4616484 9.11762906,17.1696739 9.12193184,17.4661739 C9.13484019,18.3536026 8.58222099,20.9780523 8.58222099,20.9780523 C8.56835893,21.0681596 8.66643575,21.1402028 8.75606227,21.1109499 C16.7755836,18.4934825 13.5462123,14.3047744 13.5462123,14.3047744 C13.5462123,14.3047744 21.0659011,8.28093089 19.7137851,0.198327865" id="Fill-3" fill="#8E8E93" mask="url(#mask-2)"></path>
                        </g>
                    </g>
                </g>
                <g id="Tab-1">
                    <rect id="Frame" x="0" y="0" width="48" height="49"></rect>
                    <g id="Today-Icon" transform="translate(14.000000, 9.000000)">
                        <rect id="Rectangle-2" stroke="#007AFF" stroke-width="1.26896552" x="0.634482759" y="0.634482759" width="16.7310345" height="20.7310345" rx="2"></rect>
                        <rect id="Rectangle-3" fill="#007AFF" x="2.48275862" y="5.82352941" width="13.0344828" height="13.5882353" rx="0.634482759"></rect>
                        <rect id="Rectangle-5" fill="#007AFF" x="2.48275862" y="2.58823529" width="7.44827586" height="1.94117647" rx="0.634482759"></rect>
                    </g>
                </g>
            </g>
        </g>
    </g>
</svg>