<?xml version="1.0" encoding="UTF-8"?>
<svg width="68px" height="12px" viewBox="0 0 68 12" version="1.1" xmlns="http://www.w3.org/2000/svg" xmlns:xlink="http://www.w3.org/1999/xlink">
    <!-- Generator: Sketch 48.1 (47250) - http://www.bohemiancoding.com/sketch -->
    <title>Group</title>
    <desc>Created with Sketch.</desc>
    <defs></defs>
    <g id="Bars/Status-Bar/Light-Status-Bar" stroke="none" stroke-width="1" fill="none" fill-rule="evenodd" transform="translate(-293.000000, -17.000000)">
        <g id="Group" transform="translate(293.000000, 17.000000)">
            <g id="Battery" transform="translate(43.000000, 0.000000)">
                <rect id="Border" stroke="#000000" opacity="0.35" x="0.5" y="0.833333333" width="21" height="10.3333333" rx="2.66666675"></rect>
                <path d="M23,4 L23,8 C23.8047311,7.66122348 24.328038,6.87313328 24.328038,6 C24.328038,5.12686672 23.8047311,4.33877652 23,4" id="Cap" fill="#000000" fill-rule="nonzero" opacity="0.4"></path>
                <rect id="Capacity" fill="#000000" fill-rule="nonzero" x="2" y="2.33333333" width="18" height="7.33333333" rx="1.33333337"></rect>
            </g>
            <path d="M30.3303333,2.608 C32.5462263,2.60809708 34.6773859,3.45953466 36.2833333,4.98633333 C36.4042654,5.10420792 36.5975623,5.10272102 36.7166667,4.983 L37.8726667,3.81633333 C37.9329747,3.75561117 37.9665987,3.67335948 37.9660983,3.58777915 C37.9655978,3.50219882 37.9310141,3.42034601 37.87,3.36033333 C33.6549022,-0.679214172 27.0050978,-0.679214172 22.79,3.36033333 C22.7289414,3.42030147 22.6942975,3.50212943 22.6937345,3.58770988 C22.6931714,3.67329033 22.7267357,3.75556701 22.787,3.81633333 L23.9433333,4.983 C24.0623618,5.10290168 24.2558078,5.10438973 24.3766667,4.98633333 C25.9828187,3.45943444 28.1142231,2.60799441 30.3303333,2.608 Z M30.3303333,6.40366667 C31.5478226,6.40359207 32.7218645,6.85612452 33.6243333,7.67333333 C33.7463966,7.7893139 33.938678,7.78679945 34.0576667,7.66766667 L35.2123333,6.501 C35.2731408,6.43980502 35.3068803,6.3567887 35.3060032,6.27052393 C35.3051261,6.18425917 35.2697058,6.101946 35.2076667,6.042 C32.4594679,3.48561767 28.2035321,3.48561767 25.4553333,6.042 C25.3932556,6.10194527 25.3578375,6.18429968 25.3570228,6.27059232 C25.3562081,6.35688496 25.3900651,6.43989339 25.451,6.501 L26.6053333,7.66766667 C26.724322,7.78679945 26.9166034,7.7893139 27.0386667,7.67333333 C27.9405389,6.8566645 29.1136488,6.40417078 30.3303333,6.40366667 Z M32.5493333,9.188 C32.6110866,9.12739398 32.6450945,9.04399189 32.6433278,8.95748504 C32.6415611,8.87097819 32.6041763,8.78903416 32.54,8.731 C31.2644284,7.65211615 29.3962383,7.65211615 28.1206667,8.731 C28.0564459,8.7889875 28.0189999,8.87090574 28.01717,8.95741303 C28.0153402,9.04392032 28.0492887,9.12734873 28.111,9.188 L30.1086667,11.2036667 C30.1672168,11.2629057 30.2470424,11.2962443 30.3303333,11.2962443 C30.4136243,11.2962443 30.4934499,11.2629057 30.552,11.2036667 L32.5493333,9.188 Z" id="Wifi" fill="#000000" fill-rule="nonzero"></path>
            <path d="M1.66666667,7.33333333 L2.66666667,7.33333333 C3.21895142,7.33333333 3.66666667,7.78104858 3.66666667,8.33333333 L3.66666667,10.3333333 C3.66666667,10.8856181 3.21895142,11.3333333 2.66666667,11.3333333 L1.66666667,11.3333333 C1.11438192,11.3333333 0.666666667,10.8856181 0.666666667,10.3333333 L0.666666667,8.33333333 C0.666666667,7.78104858 1.11438192,7.33333333 1.66666667,7.33333333 Z M6.33333333,5.33333333 L7.33333333,5.33333333 C7.88561808,5.33333333 8.33333333,5.78104858 8.33333333,6.33333333 L8.33333333,10.3333333 C8.33333333,10.8856181 7.88561808,11.3333333 7.33333333,11.3333333 L6.33333333,11.3333333 C5.78104858,11.3333333 5.33333333,10.8856181 5.33333333,10.3333333 L5.33333333,6.33333333 C5.33333333,5.78104858 5.78104858,5.33333333 6.33333333,5.33333333 Z M11,3 L12,3 C12.5522847,3 13,3.44771525 13,4 L13,10.3333333 C13,10.8856181 12.5522847,11.3333333 12,11.3333333 L11,11.3333333 C10.4477153,11.3333333 10,10.8856181 10,10.3333333 L10,4 C10,3.44771525 10.4477153,3 11,3 Z M15.6666667,0.666666667 L16.6666667,0.666666667 C17.2189514,0.666666667 17.6666667,1.11438192 17.6666667,1.66666667 L17.6666667,10.3333333 C17.6666667,10.8856181 17.2189514,11.3333333 16.6666667,11.3333333 L15.6666667,11.3333333 C15.1143819,11.3333333 14.6666667,10.8856181 14.6666667,10.3333333 L14.6666667,1.66666667 C14.6666667,1.11438192 15.1143819,0.666666667 15.6666667,0.666666667 Z" id="Cellular-Connection" fill="#000000" fill-rule="nonzero"></path>
        </g>
    </g>
</svg>